<?xml version="1.0" encoding="utf-8"?>
<!-- Generator: Adobe Illustrator 24.1.0, SVG Export Plug-In . SVG Version: 6.00 Build 0)  -->
<svg version="1.1" id="Calque_1" xmlns="http://www.w3.org/2000/svg" xmlns:xlink="http://www.w3.org/1999/xlink" x="0px" y="0px"
	 viewBox="0 0 445.84 133.64" style="enable-background:new 0 0 445.84 133.64;" xml:space="preserve">
<style type="text/css">
	.st0{fill:#FFFFFF;}
	.st1{fill:none;}
</style>
<path class="st0" d="M72.24,2.58v62.92c0,22.81,3.68,32.72,20.82,32.72h10.21V82.16c-2.81-0.07-3.26-0.19-3.89-0.34
	c-4.76-1.2-7.72-4.95-8.32-10.56c-0.25-2.3-0.2-4.09-0.2-4.09V2.58H72.24z"/>
<path class="st0" d="M141.68,26.78c-21.29,0-38.55,16-38.6,35.67c-0.04,19.71,17.19,35.78,38.44,35.84h0.11
	c21.17,0,38.45-16,38.5-35.66C180.17,42.91,162.92,26.83,141.68,26.78z M142.15,81.75c-10.02-0.02-18.13-8.41-18.1-18.7
	c0.02-10.26,8.14-18.61,18.1-18.61h0.04c9.98,0.02,18.08,8.41,18.06,18.69C160.23,73.4,152.11,81.75,142.15,81.75z"/>
<path class="st0" d="M183.97,93.18c7.07,3.14,13.67,5.2,21.99,5.22h0.18c8.83,0,15.71-1.91,20.43-5.66c4.69-3.75,6.98-8.96,7-15.92
	c0.01-4.36-1.4-8.28-4.32-11.97c-2.92-3.7-8.1-7.06-15.38-9.98c-9.87-2.82-11.29-7.08-11.23-9.37c0.06-2.73,2.33-5.16,5.5-5.9
	c4.29-1.03,9.76,0.58,13.57,3.9l6.64-10.82c-5.91-2.87-12.3-5.46-19.73-5.47c-0.01,0-0.01,0-0.01,0c-8.59,0-15.43,1.94-20.53,5.77
	c-5.05,3.79-7.51,8.56-7.53,14.6c-0.01,4.02,1.3,7.71,3.86,10.97c2.64,3.36,7.7,6.53,15.06,9.42c7.83,3.09,9.53,4.32,11.07,5.72
	c1.7,1.77,2.12,4.26,1.19,6.44c-0.63,1.48-3.02,5.1-10.62,4.34l-1.11-0.17c-3.77-0.57-5.93-1.41-9.47-3.76L183.97,93.18z"/>
<path class="st0" d="M286.98,75.89c-4.14,4.08-9.93,5.92-16.02,5.92c-14.44,0-17.03-15.47-17.03-15.47l52.4,0
	c0.04-1.35,0.08-3.06,0.08-3.4c0.02-9.56-3.69-18.54-10.48-25.31c-6.78-6.77-15.82-10.52-25.44-10.54
	c-19.88,0-36.03,16.01-36.08,35.68c-0.02,9.65,3.77,18.63,10.67,25.28c7.05,6.78,16.78,10.56,27.4,10.56
	c12.62,0,22.12-5.4,29.07-12.45L286.98,75.89z M254.09,57.67c0,0,2.7-13.37,16.21-13.37c13.51,0,16.24,13.37,16.24,13.37H254.09z"/>
<path class="st0" d="M66.35,89.62c-7.1,5.48-15.9,8.48-25.04,8.48H41.2c-10.37-0.03-20.1-3.76-27.39-10.54
	C6.54,80.84,2.56,71.92,2.58,62.45c0.05-19.57,17.4-35.48,38.79-35.48c9.58,0.02,18.67,3.26,25.78,9.14l-8.09,13.06
	c-3.9-3.54-9.16-5.53-14.77-5.54c-11.55,0-20.97,8.56-20.99,19.08c-0.01,5.15,2.18,9.97,6.18,13.61c3.95,3.58,9.2,5.56,14.83,5.57
	c6.71,0,11.42-2.79,14.07-4.98L66.35,89.62z"/>
<g>
	<path class="st1" d="M142.2,44.44h-0.04c-9.96,0-18.08,8.35-18.1,18.61c-0.03,10.29,8.08,18.68,18.1,18.7
		c9.96,0,18.08-8.35,18.1-18.62C160.28,52.85,152.18,44.46,142.2,44.44z M142.15,79.17c-4.14-0.01-8.03-1.69-10.96-4.72
		c-2.95-3.05-4.57-7.09-4.55-11.39c0.02-8.84,6.98-16.04,15.52-16.04h0.04c4.11,0.01,8,1.68,10.92,4.71
		c2.95,3.05,4.56,7.1,4.55,11.39C157.65,71.97,150.69,79.17,142.15,79.17z"/>
	<path class="st1" d="M270.3,44.3c-13.51,0-16.21,13.37-16.21,13.37h32.45C286.54,57.67,283.81,44.3,270.3,44.3z M257.71,55.09
		c1.56-3.35,5.12-8.21,12.59-8.21c7.48,0,11.04,4.85,12.61,8.21H257.71z"/>
	<path class="st1" d="M423.31,33.92c-6.57-5.87-14.5-8.85-23.57-8.85c-7.3,0-12.83,1.66-17.93,5.54l0-2.33l0-2.59h-2.59h-21.04
		h-2.58v0.02h-0.01v2.58v35.82c-0.12,9.8-3.71,14.79-10.66,14.79c-5.3,0-12.33-1.58-12.33-15.3V28.28v-2.58h-2.58h-20.92h-2.58v2.58
		v20.98c-1.9-4.99-4.84-9.58-8.75-13.47c-7.27-7.25-16.95-11.27-27.25-11.3h0h-0.01c-21.27,0-38.61,17.16-38.67,38.26
		c0,0.44,0.02,0.87,0.03,1.31c-0.2-0.27-0.38-0.54-0.6-0.81c-3.21-4.06-8.75-7.69-16.44-10.78l-0.12-0.05l-0.13-0.04
		c-5.92-1.69-9.42-4.24-9.36-6.82c0.04-1.53,1.52-2.98,3.51-3.45c0.67-0.16,1.38-0.24,2.13-0.24c3.12,0,6.62,1.37,9.16,3.58l2.3,2
		l1.6-2.6l6.64-10.82l1.49-2.43l-2.56-1.25c-6.11-2.97-12.86-5.73-20.85-5.74h0h-0.01c-9.09,0-16.53,2.12-22.08,6.29
		c-4.94,3.7-7.76,8.44-8.41,14.11c-6.83-12.31-20.59-20.77-36.44-20.81h-0.01h0c-22.66,0-41.13,17.16-41.18,38.25
		c-0.01,6.17,1.55,12,4.33,17.17l-1.49-0.04c-2.52-0.06-2.88-0.15-3.32-0.26c-4.67-1.18-6.04-5.18-6.38-8.33
		c-0.23-2.09-0.19-3.73-0.19-3.75V67.2v-0.03V2.58V0h-2.58H72.24h-2.58v2.58v32.25l-0.87-0.72c-7.56-6.26-17.29-9.71-27.42-9.73h0h0
		C18.61,24.38,0.05,41.46,0,62.44c-0.02,10.21,4.26,19.8,12.05,27.02c7.77,7.21,18.12,11.2,29.14,11.22h0.13
		c9.63,0,19.08-3.2,26.61-9.02l1.85-1.43l-1.25-1.98l-7.97-12.72L59,73.04l-2.27,1.87c-2.43,2-6.56,4.38-12.43,4.38
		c-4.97-0.01-9.62-1.75-13.1-4.91c-3.44-3.13-5.33-7.28-5.33-11.69c0.02-9.1,8.28-16.5,18.41-16.5c4.95,0.01,9.58,1.74,13.04,4.87
		l2.3,2.08l1.63-2.63l8.09-13.06l0.32-0.51v28.56c0,13.26,1.25,20.85,4.32,26.2c3.57,6.21,9.63,9.1,19.07,9.1h10.21h2.58v-2.58
		V82.16v-0.76c7.06,11.58,20.38,19.43,35.65,19.46h0.11c22.59,0,41.02-17.15,41.09-38.24c0-0.74-0.02-1.47-0.07-2.21
		c2.98,3.61,8.32,6.96,15.9,9.94c7.81,3.08,9.15,4.2,10.21,5.16c0.91,0.99,1.15,2.35,0.62,3.57c-0.37,0.87-1.73,2.89-6.26,2.89
		c-0.53,0-1.08-0.03-1.66-0.08l-1.04-0.16c-3.43-0.52-5.25-1.24-8.44-3.36l-2.39-1.59l-1.33,2.55l-6.58,12.66l-1.26,2.43l2.51,1.12
		c6.31,2.81,13.47,5.41,23.03,5.45h0.19c9.43,0,16.84-2.1,22.04-6.23c4.58-3.66,7.14-8.5,7.8-14.71c1.86,3.62,4.31,6.94,7.33,9.84
		c7.56,7.28,17.93,11.28,29.19,11.28c11.86,0,22.26-4.45,30.9-13.22l2.14-2.17l-2.49-1.75l-14.57-10.26l-1.76-1.24l-1.54,1.51
		c-4.35,4.28-10.12,5.18-14.21,5.18c-5.05,0-9-2.2-11.75-6.54c-0.83-1.31-1.43-2.64-1.86-3.77h48.98h0.51
		c0.92,8.23,3.74,14.95,8.44,20.02c7.48,8.09,17.39,12.21,29.45,12.24h0.1c3.9,0,7.43-0.47,10.75-1.47v0.27v31.08v2.58h2.58h21.06
		h2.58v-2.58V96.23c4.67,3.49,10.62,5.31,17.53,5.31c9.72,0,18.17-3.44,25.1-10.23c7.82-7.54,11.97-17.23,11.97-28
		C436.41,51.68,431.88,41.52,423.31,33.92z M59.06,49.17c-3.9-3.54-9.16-5.53-14.77-5.54c-11.55,0-20.97,8.56-20.99,19.08
		c-0.01,5.15,2.18,9.97,6.18,13.61c3.95,3.58,9.2,5.56,14.83,5.57c6.71,0,11.42-2.79,14.07-4.98l7.97,12.72
		c-7.1,5.48-15.9,8.48-25.04,8.48H41.2c-10.37-0.03-20.1-3.76-27.39-10.54C6.54,80.84,2.56,71.92,2.58,62.45
		c0.05-19.57,17.4-35.48,38.79-35.48c9.58,0.02,18.67,3.26,25.78,9.14L59.06,49.17z M103.27,98.23H93.06
		c-17.14,0-20.82-9.91-20.82-32.72V2.58h18.62v64.58c0,0-0.05,1.79,0.2,4.09c0.6,5.62,3.56,9.36,8.32,10.56
		c0.63,0.16,1.08,0.27,3.89,0.34V98.23z M141.62,98.29h-0.11c-21.24-0.05-38.48-16.13-38.44-35.84
		c0.04-19.66,17.31-35.67,38.6-35.67c21.24,0.05,38.49,16.13,38.45,35.84C180.07,82.29,162.8,98.29,141.62,98.29z M379.04,67.69
		c0,0.02,0,0.03,0,0.05c-0.04,0.53-0.09,1.06-0.15,1.58c0,0.03-0.01,0.05-0.01,0.08c-0.06,0.51-0.14,1.01-0.22,1.51
		c-0.01,0.04-0.02,0.08-0.02,0.11c-0.09,0.49-0.18,0.97-0.29,1.45c-0.01,0.05-0.02,0.1-0.03,0.15c-0.1,0.46-0.22,0.92-0.34,1.38
		c-0.02,0.06-0.04,0.13-0.06,0.2c-0.12,0.44-0.26,0.87-0.4,1.3c-0.03,0.08-0.05,0.16-0.08,0.24c-0.14,0.41-0.29,0.82-0.45,1.22
		c-0.04,0.1-0.08,0.19-0.12,0.29c-0.15,0.39-0.32,0.77-0.49,1.15c-0.05,0.11-0.1,0.22-0.15,0.33c-0.17,0.36-0.34,0.72-0.53,1.07
		c-0.07,0.13-0.14,0.26-0.21,0.38c-0.18,0.33-0.36,0.67-0.56,1c-0.08,0.14-0.18,0.29-0.27,0.43c-0.19,0.31-0.38,0.61-0.57,0.91
		c-0.11,0.17-0.22,0.33-0.34,0.49c-0.19,0.28-0.38,0.56-0.59,0.83c-0.13,0.19-0.28,0.37-0.42,0.55c-0.19,0.25-0.38,0.5-0.58,0.74
		c-0.17,0.21-0.36,0.42-0.54,0.63c-0.18,0.21-0.36,0.43-0.54,0.64c-0.23,0.25-0.48,0.51-0.72,0.77c-0.15,0.16-0.29,0.32-0.45,0.47
		c-0.4,0.41-0.82,0.81-1.26,1.22c-0.43,0.4-0.85,0.78-1.28,1.15c-0.3,0.26-0.6,0.51-0.89,0.76c-0.12,0.1-0.25,0.21-0.38,0.32
		c-0.39,0.31-0.78,0.62-1.17,0.92c-0.04,0.03-0.07,0.05-0.1,0.08c-2.13,1.6-4.31,2.91-6.62,3.92c-0.01,0.01-0.02,0.01-0.03,0.01
		v-31.5c0.01-0.31,0.01-0.62,0.01-0.93c0-3.99,0-34.33,0-35.3h20.99v8.2c0.01-0.01,0.02-0.02,0.03-0.03l-0.04,23.76c0,0,0,0,0,0.01
		c-0.08,0.46-0.14,0.93-0.18,1.4c0,0.04-0.01,0.08-0.01,0.12c-0.04,0.47-0.06,0.94-0.06,1.42c0,0.45,0.02,0.89,0.05,1.33
		c0,0.07,0.01,0.14,0.01,0.21c0.04,0.44,0.08,0.88,0.14,1.32c0,0,0,0,0,0.01C379.11,66.6,379.08,67.15,379.04,67.69z M381.73,65.05
		l0.01-4.58c1.18-6.7,6.65-11.63,13.44-11.63c8.98,0,15.5,6.14,15.5,14.59c0,8.12-6.66,14.72-14.85,14.72
		c-7.31,0-13-5.16-14.12-12.37C381.72,65.54,381.73,65.3,381.73,65.05z M233.56,76.82c-0.02,6.96-2.31,12.17-7,15.92
		c-4.72,3.76-11.6,5.66-20.43,5.66h-0.18c-8.31-0.02-14.92-2.07-21.99-5.22l6.58-12.66c3.55,2.35,5.71,3.19,9.47,3.76l1.11,0.17
		c0.71,0.07,1.36,0.1,1.98,0.1c6.05,0,8.06-3.11,8.64-4.45c0.94-2.18,0.51-4.67-1.19-6.44c-1.54-1.4-3.24-2.63-11.07-5.72
		c-7.36-2.89-12.42-6.07-15.06-9.42c-2.56-3.26-3.87-6.95-3.86-10.97c0.02-6.04,2.48-10.81,7.53-14.6
		c5.1-3.83,11.94-5.77,20.53-5.77c0,0,0,0,0.01,0c7.43,0.01,13.82,2.6,19.73,5.47l-6.64,10.82c-3.04-2.65-7.14-4.21-10.85-4.21
		c-0.94,0-1.86,0.1-2.72,0.31c-3.18,0.75-5.44,3.18-5.5,5.9c-0.06,2.28,1.36,6.55,11.23,9.37c7.27,2.92,12.46,6.28,15.38,9.98
		c1.81,2.29,3.04,4.67,3.71,7.19c0.02,0.07,0.04,0.14,0.05,0.21C233.38,73.72,233.57,75.24,233.56,76.82z M306.34,66.33l-52.4,0
		c0,0,2.58,15.47,17.03,15.47c6.09,0,11.88-1.84,16.02-5.92l14.57,10.26c-6.95,7.05-16.45,12.45-29.07,12.45
		c-10.62,0-20.35-3.78-27.4-10.56c-4.72-4.55-7.98-10.18-9.57-16.38c-0.02-0.1-0.04-0.2-0.07-0.29c-0.68-2.77-1.04-5.66-1.03-8.6
		c0.05-19.67,16.2-35.68,36.08-35.68c9.62,0.03,18.65,3.77,25.44,10.54c6.79,6.77,10.5,15.76,10.48,25.31
		C306.42,63.27,306.38,64.99,306.34,66.33z M344.84,98.59h-0.1c-11.53-0.03-20.58-3.86-27.56-11.41
		c-5.39-5.83-8.11-14.11-8.09-24.61v-34.3h20.92c0,28.48,0,25.15,0,35.32c0,14.7,7.59,17.89,14.92,17.89
		c4.37,0,8.25-1.71,10.66-5.88v20.42v0.98C352.39,98.06,348.88,98.59,344.84,98.59z M422.63,89.46c-6.5,6.38-14.44,9.5-23.29,9.5
		c-8.46,0-15.42-2.86-20.11-8.85v40.96h-21.06V98.85l1.03-0.45c3.83-1.67,7.39-4.09,11.2-7.63c0.47-0.43,0.92-0.87,1.35-1.31
		c0.16-0.16,0.31-0.33,0.46-0.49c0.27-0.28,0.55-0.57,0.81-0.86c0.19-0.21,0.36-0.41,0.54-0.62c0.21-0.25,0.43-0.49,0.64-0.75
		c0.19-0.24,0.38-0.48,0.56-0.72c0.17-0.22,0.35-0.45,0.52-0.68c0.2-0.27,0.38-0.54,0.57-0.81c0.14-0.21,0.29-0.41,0.42-0.61
		c0.2-0.3,0.38-0.6,0.57-0.91c0.11-0.18,0.23-0.36,0.34-0.55c0.19-0.33,0.38-0.66,0.56-1c0.09-0.16,0.18-0.32,0.26-0.49
		c0.19-0.36,0.37-0.73,0.54-1.1c0.07-0.14,0.14-0.28,0.2-0.42c0.18-0.4,0.35-0.79,0.51-1.2c0.04-0.11,0.1-0.23,0.14-0.35
		c0.17-0.43,0.32-0.86,0.47-1.29c0.03-0.1,0.07-0.19,0.1-0.29c0.15-0.46,0.29-0.92,0.43-1.39c0.02-0.07,0.04-0.15,0.06-0.22
		c0.13-0.49,0.26-0.98,0.37-1.49c0.01-0.05,0.02-0.11,0.04-0.16c0.08-0.35,0.15-0.7,0.22-1.05c2.85,5.29,8.27,8.71,14.75,8.71
		c9.76,0,17.43-7.94,17.43-17.3c0-9.76-7.55-17.18-18.08-17.18c-5.51,0-10.47,2.83-13.43,7.29l0-1.18l0.04-18.41
		c5.13-4.5,10.49-6.31,17.94-6.31c8.46,0,15.74,2.73,21.86,8.2c8.06,7.16,12.23,16.53,12.23,27.46
		C433.83,73.32,429.92,82.43,422.63,89.46z"/>
</g>
<path class="st0" d="M379.04,67.69c0,0.02,0,0.03,0,0.05c-0.04,0.53-0.09,1.06-0.15,1.58c0,0.03-0.01,0.05-0.01,0.08
	c-0.06,0.51-0.14,1.01-0.22,1.51c-0.01,0.04-0.02,0.08-0.02,0.11c-0.09,0.49-0.18,0.97-0.29,1.45c-0.01,0.05-0.02,0.1-0.03,0.15
	c-0.1,0.46-0.22,0.92-0.34,1.38c-0.02,0.06-0.04,0.13-0.06,0.2c-0.12,0.44-0.26,0.87-0.4,1.3c-0.03,0.08-0.05,0.16-0.08,0.24
	c-0.14,0.41-0.29,0.82-0.45,1.22c-0.04,0.1-0.08,0.19-0.12,0.29c-0.15,0.39-0.32,0.77-0.49,1.15c-0.05,0.11-0.1,0.22-0.15,0.33
	c-0.17,0.36-0.34,0.72-0.53,1.07c-0.07,0.13-0.14,0.26-0.21,0.38c-0.18,0.33-0.36,0.67-0.56,1c-0.08,0.14-0.18,0.29-0.27,0.43
	c-0.19,0.31-0.38,0.61-0.57,0.91c-0.11,0.17-0.22,0.33-0.34,0.49c-0.19,0.28-0.38,0.56-0.59,0.83c-0.13,0.19-0.28,0.37-0.42,0.55
	c-0.19,0.25-0.38,0.5-0.58,0.74c-0.17,0.21-0.36,0.42-0.54,0.63c-0.18,0.21-0.36,0.43-0.54,0.64c-0.23,0.25-0.48,0.51-0.72,0.77
	c-0.15,0.16-0.29,0.32-0.45,0.47c-0.4,0.41-0.82,0.81-1.26,1.22c-0.43,0.4-0.85,0.78-1.28,1.15c-0.3,0.26-0.6,0.51-0.89,0.76
	c-0.12,0.1-0.25,0.21-0.38,0.32c-0.39,0.31-0.78,0.62-1.17,0.92c-0.04,0.03-0.07,0.05-0.1,0.08c-2.13,1.6-4.31,2.91-6.62,3.92
	c-0.01,0.01-0.02,0.01-0.03,0.01v-31.5c0.01-0.31,0.01-0.62,0.01-0.93c0-3.99,0-34.33,0-35.3h20.99v8.2
	c0.01-0.01,0.02-0.02,0.03-0.03l-0.04,23.76c0,0,0,0,0,0.01c-0.08,0.46-0.14,0.93-0.18,1.4c0,0.04-0.01,0.08-0.01,0.12
	c-0.04,0.47-0.06,0.94-0.06,1.42c0,0.45,0.02,0.89,0.05,1.33c0,0.07,0.01,0.14,0.01,0.21c0.04,0.44,0.08,0.88,0.14,1.32
	c0,0,0,0,0,0.01C379.11,66.6,379.08,67.15,379.04,67.69z"/>
<path class="st0" d="M344.84,98.59h-0.1c-11.53-0.03-20.58-3.86-27.56-11.41c-5.39-5.83-8.11-14.11-8.09-24.61v-34.3h20.92
	c0,28.48,0,25.15,0,35.32c0,14.7,7.59,17.89,14.92,17.89c4.37,0,8.25-1.71,10.66-5.88v20.42v0.98
	C352.39,98.06,348.88,98.59,344.84,98.59z"/>
<path class="st0" d="M422.63,89.46c-6.5,6.38-14.44,9.5-23.29,9.5c-8.46,0-15.42-2.86-20.11-8.85v40.96h-21.06V98.85l1.03-0.45
	c3.83-1.67,7.39-4.09,11.2-7.63c0.47-0.43,0.92-0.87,1.35-1.31c0.16-0.16,0.31-0.33,0.46-0.49c0.27-0.28,0.55-0.57,0.81-0.86
	c0.19-0.21,0.36-0.41,0.54-0.62c0.21-0.25,0.43-0.49,0.64-0.75c0.19-0.24,0.38-0.48,0.56-0.72c0.17-0.22,0.35-0.45,0.52-0.68
	c0.2-0.27,0.38-0.54,0.57-0.81c0.14-0.21,0.29-0.41,0.42-0.61c0.2-0.3,0.38-0.6,0.57-0.91c0.11-0.18,0.23-0.36,0.34-0.55
	c0.19-0.33,0.38-0.66,0.56-1c0.09-0.16,0.18-0.32,0.26-0.49c0.19-0.36,0.37-0.73,0.54-1.1c0.07-0.14,0.14-0.28,0.2-0.42
	c0.18-0.4,0.35-0.79,0.51-1.2c0.04-0.11,0.1-0.23,0.14-0.35c0.17-0.43,0.32-0.86,0.47-1.29c0.03-0.1,0.07-0.19,0.1-0.29
	c0.15-0.46,0.29-0.92,0.43-1.39c0.02-0.07,0.04-0.15,0.06-0.22c0.13-0.49,0.26-0.98,0.37-1.49c0.01-0.05,0.02-0.11,0.04-0.16
	c0.08-0.35,0.15-0.7,0.22-1.05c2.85,5.29,8.27,8.71,14.75,8.71c9.76,0,17.43-7.94,17.43-17.3c0-9.76-7.55-17.18-18.08-17.18
	c-5.51,0-10.47,2.83-13.43,7.29l0-1.18l0.04-18.41c5.13-4.5,10.49-6.31,17.94-6.31c8.46,0,15.74,2.73,21.86,8.2
	c8.06,7.16,12.23,16.53,12.23,27.46C433.83,73.32,429.92,82.43,422.63,89.46z"/>
<g>
	<path class="st0" d="M445.84,30.83c0,3.38-2.76,6.09-6.08,6.09c-3.41,0-6.11-2.76-6.11-6.09c0-3.32,2.68-6.09,6.11-6.09
		C443.14,24.73,445.84,27.49,445.84,30.83z M435.09,30.83c0,2.6,2.06,4.72,4.66,4.72c2.58,0,4.66-2.1,4.66-4.72
		c0-2.57-2.03-4.72-4.66-4.72C437.1,26.1,435.09,28.26,435.09,30.83z M440.08,27.4c0.43,0,2.46,0,2.46,1.9
		c0,0.77-0.35,1.47-1.29,1.69v0.03c0.96,0.27,1.13,0.85,1.16,1.74c0.06,1.18,0.06,1.32,0.22,1.61h-1.42
		c-0.13-0.21-0.18-0.42-0.21-1.29c-0.05-1.1-0.27-1.4-1.24-1.5h-1.23v2.79h-1.38V27.4H440.08z M438.53,30.46h1.25
		c0.49,0,1.34,0,1.34-1.12c-0.08-0.73-0.59-0.81-1.18-0.81h-1.41V30.46z"/>
</g>
</svg>
