<?xml version="1.0" encoding="utf-8"?>
<!-- Generator: Adobe Illustrator 24.1.3, SVG Export Plug-In . SVG Version: 6.00 Build 0)  -->
<svg version="1.1" id="Calque_1" xmlns="http://www.w3.org/2000/svg" xmlns:xlink="http://www.w3.org/1999/xlink" x="0px" y="0px"
	 viewBox="0 0 930 1024" style="enable-background:new 0 0 930 1024;" xml:space="preserve">
<style type="text/css">
	.st0{fill:#2A36D6;}
</style>
<g id="icomoon-ignore">
</g>
<path class="st0" d="M374.6,993.5c8.3,0,20.8-2.8,31.9-19.4c-5.5-13.9-11.1-40.2-11.1-51.3c-2.8-51.3,16.6-98.5,37.5-99.9
	c15.3-1.4,27.8,13.9,29.1,37.5c4.2,63.8-16.6,90.2-27.8,112.4c1.4,8.3,16.6,23.6,30.5,23.6c5.5,0,11.1-2.8,12.5-4.2
	c-1.4-4.2-2.8-8.3-2.8-15.3c0-37.5,23.6-68,44.4-68c16.7,0,26.4,22.2,26.4,36.1c0,16.7-13.9,30.5-34.7,43c4.2,4.2,11.1,6.9,16.7,6.9
	c30.5,0,45.8-36.1,56.9-69.4c2.8-6.9,5.5-15.3,12.5-15.3c12.5,0,18,83.3,38.9,83.3c8.3,0,16.7-18,16.7-31.9
	c0-11.1-4.2-11.1-4.2-26.4c0-16.7,8.3-30.5,20.8-30.5c6.9,0,9.7,6.9,9.7,16.7c0,33.3-23.6,95.7-59.7,95.7c-26.4,0-25-45.8-34.7-45.8
	c-11.1,0-25,47.2-77.7,47.2c-8.3,0-18-4.2-25-12.5c-12.5,8.3-23.6,12.5-34.7,12.5c-19.4,0-27.8-19.4-36.1-19.4
	c-9.7,0-19.4,20.8-51.3,20.8c-25,0-29.1-33.3-38.9-33.3c-8.3,0-19.4,33.3-33.3,33.3c-22.2,0-26.4-58.3-45.8-58.3
	c-15.3,0-63.8,59.7-76.3,58.3c-5.6,0-6.9-4.2-6.9-9.7c1.4-6.9,6.9-26.4,9.7-36.1c4.2-16.7,8.3-33.3,9.7-38.9
	c2.8-5.5,8.3-9.7,12.5-9.7c2.8,0,2.8,4.2,4.2,8.3c2.8,12.5,6.9,26.4,11.1,26.4c6.9,0,31.9-47.2,45.8-47.2c18,0,19.4,73.5,43,73.5
	c8.3,0,13.9-9.7,19.4-20.8c0-19.4,5.5-47.2,22.2-47.2c11.1,0,16.6,25,8.3,45.8C346.9,986.5,363.5,993.5,374.6,993.5L374.6,993.5z
	 M795.1,929.6c-6.9,26.4-26.4,66.6-55.5,66.6c-6.9,0-19.4-2.8-19.4-9.7s45.8-8.3,45.8-43c0-12.5-12.5-31.9-30.5-31.9
	c-23.6,0-47.2,26.4-47.2,61.1c0,31.9,19.4,43,40.2,43c34.7,0,55.5-27.8,66.6-51.3c5.5,15.3,8.3,51.3,22.2,51.3
	c5.5,0,8.3-2.8,15.3-16.7c15.3-34.7,30.5-76.3,51.3-76.3c8.3,0,2.8,13.9,22.2,13.9c8.3,0,15.3-6.9,15.3-15.3
	c0-12.5-11.1-22.2-27.8-22.2c-50,0-59.7,73.5-68,73.5c-12.5,0-8.3-59.7-18-59.7C800.6,915.8,796.4,925.5,795.1,929.6L795.1,929.6z
	 M446.8,874.1c-1.4-15.3-4.2-20.8-12.5-20.8c-11.1,0-15.3,33.3-12.5,68c1.4,22.2,4.2,26.4,8.3,26.4S448.2,907.4,446.8,874.1
	L446.8,874.1z M360.8,843.6c-1.4-8.3-6.9-13.9-16.6-13.9s-19.4,11.1-18,23.6c0,8.3,5.5,15.3,15.3,15.3
	C353.8,868.6,362.1,856.1,360.8,843.6z M524.5,950.5c0-8.3-4.2-16.7-11.1-16.7c-4.2,0-15.3,5.5-15.3,22.2c0,12.5,4.2,19.4,6.9,22.2
	C520.3,974,524.5,961.6,524.5,950.5L524.5,950.5z M729.8,933.8c11.1,0,13.9,12.5,11.1,20.8s-12.5,16.7-26.4,19.4
	C711.8,965.7,710.4,933.8,729.8,933.8z M124.9,896.3c-1.4-4.2-5.6-15.3-6.9-23.6c-2.8-18,6.9-29.1,15.3-31.9
	c9.7-2.8,12.5,2.8,16.6,12.5c4.2,16.7,5.6,38.9,4.2,70.8c-1.4,43-23.6,95.7-77.7,94.4c-45.8-1.4-66.6-30.5-69.4-76.3
	c-1.4-22.2,0-43,9.7-73.5c4.2-16.7,8.3-22.2,23.6-25c11.1-2.8,11.1,9.7,8.3,23.6c-5.5,31.9-8.3,47.2-6.9,81.9
	c1.4,37.5,19.4,52.7,38.9,52.7c27.8,0,41.6-23.6,45.8-56.9C130.4,917.2,127.7,904.7,124.9,896.3L124.9,896.3z"/>
<path class="st0" d="M745.1,212.3c4.2,26.4,44.4,62.4,54.1,61.1c6.9,0,9.7-34.7,9.7-61.1c0-15.3,1.4-27.8-6.9-30.5
	C789.5,208.1,756.2,213.7,745.1,212.3L745.1,212.3z M746.5,201.2c29.1,0,55.5-23.6,55.5-43c0-9.7-4.2-16.6-15.3-18
	c1.4,2.8,2.8,4.2,2.8,8.3c0,15.3-23.6,31.9-48.6,31.9c-9.7,0-12.5,6.9-12.5,9.7C728.5,197,736.8,201.2,746.5,201.2L746.5,201.2z
	 M740.9,169.3c-4.2,0-9.7,0-12.5-5.6s-1.4-12.5-6.9-16.6c4.2,1.4,9.7,1.4,13.9,1.4c12.5,0,25-8.3,33.3-8.3c5.5,0,8.3,4.2,8.3,8.3
	C777,159.6,752,169.3,740.9,169.3L740.9,169.3z"/>
<path class="st0" d="M117.9,387.1c9.7,0,6.9-58.3,22.2-58.3c4.2,0,4.2,4.2,4.2,8.3c0,12.5-6.9,31.9-6.9,43c0,5.5,1.4,6.9,4.2,6.9
	c6.9,0,18-63.8,30.5-63.8c4.2,0,5.6,4.2,5.6,6.9c0,13.9-16.6,51.3-16.6,62.4c0,1.4,0,2.8,1.4,2.8c6.9,0,20.8-30.5,25-45.8
	c2.8-8.3,5.6-12.5,8.3-12.5s5.6,2.8,5.6,9.7c0,15.3-13.9,50-26.4,73.5c-9.7,18-23.6,44.4-23.6,59.7c0,6.9,1.4,15.3,12.5,25
	c-18-1.4-25-2.8-31.9-16.6c-29.1,59.7,55.5,54.1,26.4,106.8c-5.6-6.9-47.2-16.7-47.2-72.2c0-47.2,41.6-74.9,41.6-95.7
	c0-4.2-1.4-6.9-5.6-9.7c-9.7-8.3-9.7-13.9-16.6-13.9c-5.6,0-11.1,12.5-5.6,23.6c2.8,4.2,4.2,5.5,4.2,9.7c0,8.3-12.5,29.1-20.8,29.1
	S93,445.4,93,410.7c0-30.5,6.9-61.1,15.3-61.1c2.8,0,2.8,1.4,2.8,4.2c0,4.2-1.4,11.1-1.4,23.6C112.4,387.1,115.2,387.1,117.9,387.1
	L117.9,387.1z"/>
<path class="st0" d="M188.7,469c11.1,0,20.8-8.3,20.8-27.8v-29.1c0-11.1,1.4-23.6,8.3-31.9c-1.4,4.2-1.4,6.9-1.4,11.1
	c0,23.6,13.9,40.2,13.9,63.8c0,8.3-2.8,13.9-9.7,13.9s-5.6-5.5-6.9-5.5s-2.8,4.2-2.8,6.9c0,5.5,4.2,15.3,15.3,15.3
	c9.7,0,18-9.7,18-19.4c0-25-19.4-52.7-19.4-79.1c0-11.1,2.8-19.4,5.6-25c0,55.5,47.2,95.7,47.2,119.3c0,5.5-4.2,9.7-9.7,9.7
	c-6.9,0-9.7-5.5-9.7-8.3c0-1.4,0-2.8-1.4-2.8s-6.9,5.5-6.9,12.5c0,9.7,6.9,20.8,20.8,20.8c15.3,0,25-13.9,25-25
	c0-29.1-56.9-73.5-56.9-120.7c0-8.3,1.4-20.8,6.9-31.9C208.1,359.4,197,391.3,197,419c0,23.6-1.4,36.1-12.5,36.1
	c-6.9,0-8.3-5.5-9.7-5.5s-2.8,5.5-2.8,6.9C173.4,463.4,180.4,469,188.7,469L188.7,469z"/>
<path class="st0" d="M671.6,191.5c12.5,0,20.8-5.6,20.8-8.3c0-1.4-1.4-1.4-5.5-1.4s-11.1,0-25-2.8c-11.1-1.4-20.8-6.9-23.6-6.9
	c-1.4,0-1.4,0-1.4,1.4C636.9,180.4,650.8,191.5,671.6,191.5L671.6,191.5z M610.5,155.4c4.2-2.8,19.4,1.4,40.2-8.3
	c2.8-1.4,5.5-1.4,6.9-1.4c9.7,0,6.9,11.1,16.7,11.1c6.9,0,15.3-5.6,20.8-5.6c8.3,0,20.8,26.4,20.8,38.9c0,13.9-20.8,22.2-47.2,22.2
	c-37.5,0-59.7-31.9-59.7-52.7C609.1,156.8,610.5,155.4,610.5,155.4L610.5,155.4z"/>
<path class="st0" d="M194.3,574.4c-9.7,2.8-23.6,16.7-23.6,40.2c0,27.8,29.1,69.4,77.7,69.4c40.2,0,51.3-27.8,51.3-47.2
	c0-41.6-26.4-72.2-59.7-72.2c-18,0-34.7,13.9-34.7,33.3c0,18,13.9,45.8,47.2,45.8c15.3,0,25-11.1,25-23.6s-11.1-29.1-27.8-29.1
	c-5.6,0-8.3,2.8-8.3,8.3c0,6.9,9.7,13.9,20.8,13.9c2.8,0,5.5,0,5.5-1.4c0,1.4,1.4,2.8,1.4,2.8c0,6.9-5.5,9.7-15.3,9.7
	c-13.9,0-27.8-11.1-27.8-27.8c0-9.7,8.3-16.7,20.8-16.7c25,0,40.2,22.2,40.2,44.4c0,19.4-11.1,31.9-33.3,31.9
	C206.7,654.9,184.5,614.7,194.3,574.4L194.3,574.4z"/>
<path class="st0" d="M491.2,682.7c0,5.5,5.5,11.1,11.1,11.1s11.1-5.5,11.1-11.1s-5.5-11.1-11.1-11.1
	C495.3,671.6,491.2,675.7,491.2,682.7z M512,738.2c13.9,0,12.5-1.4,16.7-1.4s4.2,2.8,4.2,4.2c0,5.5-13.9,13.9-37.5,13.9
	c-13.9,0-22.2-6.9-25-15.3c-13.9,8.3-34.7,16.7-55.5,16.7c-56.9,0-72.2-25-88.8-33.3c-13.9-5.5-34.7,5.5-63.8-26.4
	c4.2,1.4,9.7,1.4,13.9,1.4c25,0,38.9-12.5,38.9-33.3c0-2.8,0-5.5,0-8.3c8.3,2.8,25,16.7,30.5,40.2c0,2.8,12.5,5.5,19.4,5.5
	c9.7,0,22.2-4.2,25-20.8c33.3-2.8,55.5-22.2,61.1-47.2c12.5,4.2,25,15.3,29.1,20.8c4.2-1.4,9.7-2.8,16.6-2.8
	c8.3,0,19.4,1.4,30.5,5.5c0-4.2,1.4-8.3,6.9-8.3c8.3,0,5.5,9.7,8.3,13.9c1.4,2.8,8.3,4.2,8.3,9.7s-4.2,6.9-6.9,6.9
	c-1.4,0-2.8,0-2.8,0c-5.5,1.4-5.5,41.6-29.1,41.6c-16.6,0-33.3-13.9-40.2-31.9c-1.4-5.5-5.5-8.3-9.7-8.3s-6.9,1.4-12.5,6.9
	c-15.3,16.7-40.2,30.5-70.8,30.5c-9.7,0-16.6-1.4-19.4-1.4c-1.4,0-1.4,0-1.4,0c0,1.4,9.7,9.7,30.5,9.7c48.6,0,61.1-27.8,69.4-27.8
	c1.4,0,4.2,0,6.9,4.2C471.8,731.2,496.7,738.2,512,738.2L512,738.2z"/>
<path class="st0" d="M681.3,560.6c-5.5,0-38.9,43-59.7,43c-5.5,0-9.7-9.7-9.7-16.7c0-4.2,2.8-6.9,11.1-8.3
	c48.6-11.1,37.5-47.2,77.7-47.2c22.2,0,47.2,15.3,47.2,50c0,37.5-52.7,81.9-59.7,81.9s-13.9-9.7-13.9-15.3c0-1.4,1.4-4.2,6.9-6.9
	c26.4-11.1,41.6-34.7,41.6-47.2c0-2.8-1.4-5.5-5.5-5.5s-25,45.8-47.2,45.8c-15.3,0-31.9-13.9-31.9-20.8c0-11.1,45.8-31.9,45.8-47.2
	C686.8,560.6,684.1,560.6,681.3,560.6L681.3,560.6z M711.8,542.5c-4.2,0-8.3,2.8-8.3,11.1s6.9,13.9,9.7,15.3
	c1.4,1.4,5.5,2.8,8.3,2.8c8.3,0,13.9-2.8,13.9-8.3C736.8,553.6,724.3,542.5,711.8,542.5z"/>
<path class="st0" d="M191.5,220.6c0,5.6,5.6,11.1,11.1,11.1s11.1-5.6,11.1-11.1s-5.6-11.1-11.1-11.1
	C195.6,209.5,191.5,213.7,191.5,220.6z M176.2,195.6c0,5.6,5.6,11.1,11.1,11.1s11.1-5.6,11.1-11.1s-5.6-11.1-11.1-11.1
	S176.2,188.7,176.2,195.6z M166.5,272c-6.9,1.4-19.4,9.7-19.4,23.6c0,9.7,8.3,16.6,18,16.6c5.6,0,8.3-1.4,11.1-2.8
	c-8.3-6.9-11.1-15.3-11.1-23.6C163.7,278.9,165.1,274.7,166.5,272L166.5,272z M98.5,274.7c0,1.4,0,2.8,0,4.2
	c0,12.5,6.9,20.8,16.7,20.8c6.9,0,15.3-4.2,22.2-13.9c-2.8,0-6.9,1.4-9.7,1.4C116.6,287.2,104.1,284.4,98.5,274.7L98.5,274.7z
	 M88.8,299.7c0,20.8,6.9,31.9,18,31.9c8.3,0,20.8-6.9,34.7-18c-11.1,2.8-19.4,4.2-26.4,4.2C104.1,316.4,97.1,313.6,88.8,299.7z
	 M161,188.7c1.4-4.2,2.8-9.7,2.8-16.6c0-13.9-5.6-33.3-25-33.3c-11.1,0-18,8.3-18,19.4C119.3,180.4,141.5,188.7,161,188.7L161,188.7
	z M137.4,259.5c-9.7,0-19.4-11.1-19.4-22.2c0-5.6,4.2-12.5,6.9-12.5c1.4,0,1.4,1.4,1.4,2.8c1.4,13.9,11.1,20.8,19.4,25
	c1.4,0,1.4,1.4,1.4,1.4C147.1,256.7,141.5,259.5,137.4,259.5L137.4,259.5z M162.3,224.8c1.4,2.8,6.9,5.6,6.9,8.3
	c0,4.2-2.8,8.3-6.9,8.3c-9.7,0-18-15.3-18-23.6c0-5.6,2.8-5.6,6.9-5.6c1.4,0,2.8,0,4.2,1.4C159.6,215.1,159.6,220.6,162.3,224.8
	L162.3,224.8z M97.1,259.5c0,1.4-1.4,1.4-1.4,2.8c0,2.8,2.8,5.5,5.6,5.5s4.2,0,4.2,0c6.9,0,13.9,4.2,25,4.2c6.9,0,13.9-1.4,23.6-6.9
	c19.4-9.7,27.8-34.7,27.8-38.9c0-5.6-4.2-4.2-8.3-9.7s-2.8-9.7-4.2-11.1c-1.4-1.4-5.6-1.4-9.7-1.4c-1.4,0-4.2,0-5.6,0
	c-9.7,0-19.4,1.4-31.9,8.3C97.1,227.6,101.3,252.5,97.1,259.5L97.1,259.5z M190.1,248.4c-5.6,6.9-12.5,19.4-12.5,31.9
	c0,15.3,9.7,27.8,23.6,27.8s19.4-11.1,19.4-23.6C220.6,265,204,252.5,190.1,248.4L190.1,248.4z M130.4,194.3c0,0-8.3,5.6-18,5.6
	c-12.5,0-20.8-8.3-20.8-20.8c0-8.3,4.2-18,15.3-22.2c0,1.4,0,2.8,0,4.2C104.1,177.6,113.8,190.1,130.4,194.3L130.4,194.3z"/>
<path class="st0" d="M621.6,287.2c0,6.9,5.5,11.1,11.1,11.1c6.9,0,11.1-5.5,11.1-11.1c0-6.9-5.5-11.1-11.1-11.1
	S621.6,280.3,621.6,287.2z M621.6,321.9c0,6.9,5.5,12.5,12.5,12.5s12.5-5.5,12.5-12.5c0-6.9-5.5-12.5-12.5-12.5
	C628.6,309.4,621.6,315,621.6,321.9z M581.4,345.5c0,11.1,8.3,19.4,19.4,19.4s19.4-8.3,19.4-19.4c0-11.1-8.3-19.4-19.4-19.4
	C591.1,327.5,581.4,335.8,581.4,345.5z M592.5,306.6c0,5.5,5.5,11.1,11.1,11.1s11.1-5.5,11.1-11.1c0-5.5-5.5-11.1-11.1-11.1
	S592.5,301.1,592.5,306.6z M556.4,328.8c0,5.5,5.5,11.1,11.1,11.1s11.1-5.5,11.1-11.1c0-5.5-5.5-11.1-11.1-11.1
	C560.6,317.7,556.4,323.3,556.4,328.8z M584.2,263.6c0,9.7,8.3,18,18,18s18-8.3,18-18c0-9.7-8.3-18-18-18S584.2,253.9,584.2,263.6z
	 M605,230.3c0,5.6,4.2,11.1,11.1,11.1c5.5,0,11.1-4.2,11.1-11.1c0-5.6-4.2-11.1-11.1-11.1C610.5,219.2,605,223.4,605,230.3z
	 M555,256.7c0,5.5,4.2,11.1,11.1,11.1c5.5,0,11.1-4.2,11.1-11.1c0-5.6-4.2-11.1-11.1-11.1S555,251.1,555,256.7z M553.6,292.8
	c0,9.7,6.9,16.6,16.7,16.6s16.7-6.9,16.7-16.6c0-9.7-6.9-16.6-16.7-16.6S553.6,283.1,553.6,292.8z M518.9,310.8
	c0,8.3,6.9,15.3,15.3,15.3s15.3-6.9,15.3-15.3s-6.9-15.3-15.3-15.3C525.9,294.2,518.9,302.5,518.9,310.8z M527.3,270.6
	c0,5.5,5.5,11.1,11.1,11.1s11.1-5.5,11.1-11.1c0-5.5-5.5-11.1-11.1-11.1S527.3,265,527.3,270.6z M625.8,356.6
	c0-5.5,5.5-9.7,11.1-9.7s11.1,4.2,11.1,9.7c0,6.9-4.2,11.1-11.1,11.1C631.3,367.7,625.8,363.5,625.8,356.6z"/>
<path class="st0" d="M632.7,677.1c1.4,0,2.8,1.4,2.8,5.5c0,5.5-2.8,13.9-12.5,20.8c-6.9,4.2-16.7,8.3-30.5,8.3
	c2.8-6.9,4.2-13.9,4.2-20.8c0-2.8,0-4.2,0-6.9h4.2C621.6,686.8,631.3,677.1,632.7,677.1L632.7,677.1z M635.5,650.8
	c2.8-1.4,2.8-5.5,2.8-8.3v-6.9c0-8.3-12.5-12.5-29.1-12.5c-20.8,0-31.9,9.7-31.9,12.5V648c0,5.5,12.5,11.1,27.8,11.1
	C617.5,659.1,628.6,656.3,635.5,650.8L635.5,650.8z M649.4,653.5c-6.9,5.5-23.6,18-52.7,18c-15.3,0-22.2-4.2-23.6-4.2
	c-2.8,0-5.5,2.8-8.3,6.9c-6.9,8.3-15.3,22.2-15.3,38.9c0,11.1,8.3,22.2,25,22.2c52.7,0,91.6-31.9,91.6-59.7
	C664.6,659.1,656.3,653.5,649.4,653.5L649.4,653.5z"/>
<path class="st0" d="M659.1,419c0,6.9,2.8,15.3,9.7,15.3c5.5,0,11.1-8.3,11.1-18c0-11.1-1.4-19.4-1.4-23.6c0-1.4,1.4-2.8,1.4-2.8
	c4.2,0,8.3,11.1,12.5,11.1c5.5,0,12.5-9.7,15.3-9.7c1.4,0,1.4,1.4,1.4,1.4c0,4.2-6.9,13.9-6.9,16.6s16.7,4.2,16.7,6.9
	c0,4.2-16.7,4.2-25,8.3c-8.3,2.8-12.5,6.9-12.5,12.5s5.5,6.9,13.9,6.9c18,0,31.9-9.7,36.1-9.7c1.4,0,1.4,0,1.4,1.4
	c0,2.8-9.7,12.5-9.7,16.6s16.7,9.7,16.7,12.5c0,1.4-1.4,1.4-2.8,1.4c-2.8,0-8.3-1.4-11.1-1.4s-4.2,0-5.5,1.4
	c-1.4,2.8,0,16.6-2.8,16.6c-4.2,0-12.5-33.3-34.7-33.3c-2.8,0-5.5,2.8-5.5,6.9c0,11.1,11.1,23.6,20.8,30.5
	c4.2,2.8,12.5,5.5,12.5,8.3s-18,0-18,5.5s2.8,12.5,2.8,16.7c0,1.4,0,2.8-1.4,2.8c-2.8,0-11.1-15.3-15.3-15.3
	c-2.8,0-11.1,9.7-13.9,9.7c-1.4,0-1.4-1.4-1.4-1.4c0-6.9,9.7-20.8,9.7-34.7c0-6.9-1.4-20.8-8.3-20.8s-13.9,11.1-18,20.8
	c-1.4,5.5,0,30.5-5.5,30.5c-4.2,0-2.8-15.3-8.3-15.3c-4.2,0-12.5,6.9-16.7,6.9c0,0-1.4,0-1.4-1.4c0-2.8,8.3-13.9,8.3-16.6
	c0-4.2-18-4.2-18-8.3c0-1.4,6.9-2.8,13.9-4.2c13.9-2.8,34.7-12.5,34.7-27.8c0-16.6-15.3-23.6-26.4-30.5c-5.5-2.8-11.1-5.5-11.1-8.3
	s6.9-2.8,9.7-2.8c4.2,0,8.3,0,8.3-4.2c0-2.8,0-6.9,0-11.1c0-2.8,0-5.5,1.4-5.5c4.2,0,9.7,13.9,12.5,13.9c4.2,0,11.1-11.1,15.3-11.1
	c1.4,0,1.4,1.4,1.4,2.8C664.6,396.8,659.1,409.3,659.1,419L659.1,419z M525.9,337.2c2.8,23.6,34.7,11.1,34.7,40.2
	c0,4.2-1.4,9.7-1.4,15.3s0,11.1,5.5,11.1c4.2,0,5.5-2.8,5.5-8.3c0-4.2-1.4-9.7-1.4-12.5c0-9.7,6.9-12.5,11.1-12.5
	c11.1,0,18,11.1,34.7,11.1c-4.2,18-40.2,12.5-40.2,33.3c0,9.7,9.7,12.5,16.7,12.5c5.5,0,8.3-1.4,8.3-5.5c0-2.8,0-5.5,0-8.3
	c0-1.4,1.4-2.8,2.8-2.8c5.5,0,36.1,22.2,36.1,30.5c0,6.9-31.9,12.5-41.6,12.5c-2.8,0-2.8-1.4-2.8-2.8s4.2-8.3,4.2-11.1
	s-4.2-4.2-15.3-4.2c-5.5,0-9.7,0-9.7,4.2c0,6.9,12.5,16.6,12.5,23.6c0,5.5-2.8,8.3-12.5,8.3c-6.9,0-19.4-5.5-19.4-15.3
	c0-8.3,8.3-15.3,8.3-20.8c0-1.4-1.4-4.2-4.2-4.2c-9.7,0-12.5,27.8-50,30.5c5.5-5.5,11.1-11.1,11.1-23.6c0-5.5-1.4-11.1-1.4-16.6
	c0-8.3,4.2-12.5,9.7-12.5c9.7,0,15.3,13.9,22.2,13.9c4.2,0,6.9-2.8,6.9-8.3c0-20.8-40.2-18-40.2-48.6
	C516.2,360.8,518.9,351,525.9,337.2L525.9,337.2z"/>
<path class="st0" d="M580,517.5c0,4.2,2.8,6.9,6.9,6.9s6.9-4.2,6.9-8.3c0-5.5-5.5-13.9-9.7-13.9c-2.8,0-1.4,2.8-1.4,6.9
	C581.4,512,580,516.2,580,517.5L580,517.5z M564.7,481.5c29.1,5.5,45.8,27.8,45.8,48.6c0,13.9-8.3,27.8-25,27.8
	c-13.9,0-25-9.7-25-25c0-11.1,9.7-23.6,9.7-36.1C570.3,491.2,568.9,485.6,564.7,481.5z M527.3,528.7c2.8,2.8,4.2,5.5,4.2,8.3
	c0,4.2-1.4,8.3-1.4,13.9c0,6.9,5.5,12.5,12.5,12.5c8.3,0,12.5-5.5,12.5-13.9C555,538.4,543.9,528.7,527.3,528.7z M620.2,510.6
	c1.4,2.8,2.8,5.5,2.8,8.3c0,8.3-5.5,15.3-5.5,23.6c0,9.7,6.9,16.7,18,16.7s19.4-9.7,19.4-19.4C654.9,524.5,641,512,620.2,510.6
	L620.2,510.6z M534.2,495.4c12.5,1.4,15.3,5.5,15.3,9.7c0,5.5-5.5,8.3-11.1,8.3c-4.2,0-8.3-1.4-12.5-1.4c-5.5,0-12.5,1.4-16.6,6.9
	c4.2,0,8.3,2.8,8.3,8.3c0,16.7-44.4,2.8-44.4,44.4c0,22.2,22.2,45.8,56.9,45.8c18,0,29.1-5.5,29.1-12.5c0-5.5-9.7-1.4-9.7-5.5
	c0-1.4,2.8-5.5,2.8-8.3c0-1.4-1.4-4.2-2.8-4.2c-5.5,0-13.9,8.3-33.3,8.3c-15.3,0-30.5-8.3-30.5-20.8c0-2.8,1.4-4.2,2.8-4.2
	s4.2,1.4,5.5,1.4c1.4,0,1.4-1.4,1.4-4.2s0-11.1,5.5-11.1s15.3,19.4,54.1,19.4c12.5,0,37.5-2.8,47.2-11.1c0,30.5-23.6,70.8-74.9,70.8
	c-52.7,0-80.5-41.6-80.5-80.5c0-43,34.7-81.9,81.9-81.9c12.5,0,22.2,4.2,22.2,9.7C553.6,491.2,535.6,487,534.2,495.4L534.2,495.4z"
	/>
<path class="st0" d="M353.8,177.6c18,0,26.4,15.3,26.4,33.3c0,8.3-2.8,19.4-5.5,19.4c-4.2,0-2.8-6.9-4.2-12.5c0-6.9-1.4-9.7-4.2-9.7
	c-4.2,0-8.3,11.1-8.3,20.8c0,6.9,1.4,13.9,5.5,13.9c2.8,0,5.5-1.4,6.9-2.8c-1.4,12.5-11.1,23.6-23.6,23.6c-25,0-33.3-29.1-36.1-45.8
	c-15.3,15.3-27.8,26.4-52.7,26.4c-22.2,0-33.3-16.6-33.3-33.3c0-4.2,1.4-16.6,6.9-16.6c6.9,0,1.4,22.2,13.9,22.2
	c2.8,0,9.7-2.8,12.5-12.5c1.4-5.6,2.8-11.1,2.8-16.6c0-6.9-1.4-12.5-6.9-12.5c-4.2,0-11.1,4.2-12.5,5.6
	c6.9-19.4,22.2-30.5,40.2-30.5c22.2,0,33.3,19.4,33.3,41.6c0,2.8,0,6.9-1.4,9.7C327.5,190.1,339.9,177.6,353.8,177.6L353.8,177.6z
	 M333,210.9c0-4.2-1.4-5.6-2.8-5.6c-2.8,0-5.5,2.8-9.7,11.1c0,9.7,2.8,13.9,5.5,13.9S333,220.6,333,210.9L333,210.9z M294.2,222
	c2.8,0,6.9-2.8,13.9-11.1c0-4.2,0-6.9,0-11.1c0-5.6-2.8-11.1-5.5-11.1c-8.3,0-12.5,22.2-12.5,27.8C291.4,219.2,292.8,222,294.2,222
	L294.2,222z M339.9,247c6.9,0,15.3-26.4,15.3-43c0-4.2,0-6.9-2.8-6.9c-5.5,0-15.3,27.8-15.3,43C337.2,244.2,338.6,247,339.9,247z
	 M272,231.7c9.7,0,20.8-51.3,20.8-59.7c0-2.8-1.4-4.2-2.8-4.2c-8.3,0-20.8,48.6-20.8,59.7C269.2,228.9,269.2,231.7,272,231.7z"/>
<path class="st0" d="M302.5,252.5c-12.5,0-12.5,13.9-12.5,44.4c-8.3-19.4-23.6-40.2-41.6-40.2c-11.1,0-16.6,8.3-16.6,20.8
	c0,2.8,0,6.9,1.4,9.7c1.4-4.2,5.6-6.9,11.1-6.9c12.5,0,26.4,9.7,36.1,22.2c-11.1-1.4-20.8-4.2-30.5-4.2c-5.6,0-11.1,0-15.3,2.8
	c-8.3,4.2-19.4,15.3-19.4,33.3c0,2.8,0,5.5,1.4,9.7c9.7-22.2,36.1-31.9,52.7-31.9c2.8,0,5.5,0,8.3,0c-8.3,8.3-11.1,20.8-11.1,30.5
	c0,4.2-1.4,4.2-5.5,4.2c0,9.7,6.9,22.2,6.9,29.1c0,2.8-1.4,4.2-2.8,5.5c0,12.5,12.5,20.8,12.5,29.1c0,1.4,0,4.2-1.4,4.2
	c1.4,5.5,13.9,13.9,16.6,18c2.8,5.5,4.2,5.5,5.5,5.5c4.2,0,12.5-5.5,12.5-11.1c0-1.4-1.4-4.2-2.8-4.2c-5.5-4.2-8.3-12.5-9.7-18
	c-1.4,0-4.2-1.4-5.5-4.2c-1.4-5.5-1.4-16.6-4.2-23.6c-4.2-1.4-5.5-2.8-5.5-9.7c0-4.2,2.8-18,2.8-22.2c-1.4,0-4.2-1.4-4.2-4.2
	c0-8.3,8.3-15.3,11.1-27.8c15.3,11.1,19.4,23.6,19.4,34.7c0,5.5-1.4,11.1-1.4,15.3c11.1-5.5,29.1-13.9,29.1-31.9
	c0-9.7-4.2-22.2-36.1-26.4c9.7-4.2,22.2-5.5,31.9-5.5c18,0,27.8,5.5,30.5,18c4.2-5.5,6.9-12.5,6.9-18c0-13.9-11.1-22.2-26.4-22.2
	c-16.6,0-31.9,8.3-48.6,19.4c6.9-15.3,12.5-23.6,20.8-23.6c1.4,0,2.8,0,4.2,0C321.9,265,309.4,252.5,302.5,252.5L302.5,252.5z"/>
<path class="st0" d="M771.5,453.7c13.9,0,25,18,25,38.9c0,22.2-11.1,47.2-29.1,63.8c0-37.5-45.8-25-45.8-52.7
	c0-11.1,8.3-19.4,18-19.4c8.3,0,15.3,2.8,20.8,6.9c-5.5-4.2-6.9-11.1-6.9-18C753.4,463.4,759,453.7,771.5,453.7L771.5,453.7z"/>
<path class="st0" d="M564.7,167.9c-2.8-4.2-11.1-5.6-13.9-5.6c-12.5,0-20.8,8.3-22.2,16.6c-1.4-2.8-1.4-5.6-1.4-9.7
	c0-12.5,8.3-27.8,29.1-27.8c18,0,25,9.7,27.8,9.7s5.5-2.8,8.3-2.8s2.8,4.2,2.8,8.3c0,11.1-5.5,30.5-18,37.5
	c-2.8-4.2-6.9-9.7-13.9-13.9c-1.4-1.4-2.8-2.8-2.8-4.2C559.2,173.4,562,170.7,564.7,167.9L564.7,167.9z M523.1,188.7
	c6.9,6.9,13.9,9.7,20.8,9.7c2.8,0,6.9-1.4,8.3-1.4c2.8,0,4.2,1.4,4.2,2.8c0,2.8-2.8,8.3-5.5,11.1c2.8,1.4,6.9,1.4,11.1,1.4
	c15.3,0,33.3-9.7,33.3-34.7c2.8,4.2,5.5,13.9,5.5,18c0,30.5-22.2,41.6-43,41.6c-13.9,0-19.4-4.2-22.2-4.2c-5.5,0-5.5,11.1-8.3,9.7
	c-6.9-1.4-12.5-15.3-12.5-30.5C516.2,205.4,517.5,195.6,523.1,188.7L523.1,188.7z"/>
<path class="st0" d="M284.4,11.1c0-1.4-8.3-2.8-19.4-2.8c-18,0-15.3,15.3-29.1,15.3S224.8,8.3,206.7,8.3c-11.1,0-20.8,1.4-20.8,4.2
	s12.5,1.4,12.5,11.1c0,9.7-27.8,12.5-27.8,18c0,1.4,2.8,2.8,5.6,2.8c4.2,0,13.9-2.8,20.8-2.8c4.2,0,6.9,1.4,6.9,4.2
	c0,6.9-15.3,19.4-15.3,25c0,1.4,1.4,2.8,2.8,2.8c5.6,0,15.3-13.9,23.6-13.9c15.3,0,5.6,31.9,12.5,31.9c8.3,0,4.2-30.5,16.6-30.5
	c9.7,0,16.6,20.8,23.6,20.8c1.4,0,2.8-1.4,2.8-2.8c0-5.6-8.3-18-8.3-25c0-4.2,2.8-6.9,8.3-6.9c6.9,0,15.3,4.2,19.4,4.2
	c1.4,0,2.8,0,2.8-2.8c0-6.9-25-13.9-25-22.2C270.6,15.3,284.4,15.3,284.4,11.1L284.4,11.1z M349.7,40.2c0,5.5,18,15.3,25,15.3
	c4.2,0,5.5-6.9,5.5-12.5c0-8.3-4.2-8.3-11.1-8.3C362.1,33.3,349.7,36.1,349.7,40.2L349.7,40.2z M378.8,94.4
	c0-16.7-45.8-47.2-45.8-59.7c0-1.4,0-2.8,1.4-2.8c8.3-8.3,40.2-13.9,40.2-20.8c0-4.2-6.9-4.2-9.7-4.2c-26.4,0-63.8,9.7-63.8,18
	c0,9.7,34.7,33.3,34.7,44.4c0,2.8-1.4,4.2-5.5,4.2c-9.7,0-30.5-11.1-40.2-11.1c-4.2,0-5.5,2.8-5.5,6.9c0,13.9,15.3,38.9,15.3,45.8
	c0,1.4,0,1.4-1.4,1.4c-5.5,0-29.1-27.8-37.5-27.8c-2.8,0-2.8,4.2-2.8,9.7v9.7c0,6.9,0,9.7-2.8,9.7c-6.9,0-11.1-20.8-18-20.8
	s-8.3,36.1-15.3,36.1c-8.3,0-1.4-40.2-8.3-40.2c-8.3,0-18,26.4-25,26.4c-2.8,0-2.8-2.8-2.8-4.2c0-8.3,4.2-20.8,4.2-29.1
	c0-4.2-1.4-5.6-4.2-5.6c-8.3,0-27.8,13.9-34.7,13.9c-1.4,0-2.8,0-2.8-1.4c0-6.9,30.5-27.8,30.5-37.5s-41.6-2.8-41.6-13.9
	c0-8.3,30.5-18,30.5-27.8c0-8.3-36.1-11.1-48.6-11.1c-16.7,0-25,1.4-25,6.9c0,6.9,37.5,9.7,37.5,15.3S93,47.2,93,56.9
	c0,8.3,54.1,0,54.1,9.7c-1.4,12.5-50,52.7-50,66.6c0,2.8,2.8,4.2,5.6,4.2c13.9,0,52.7-27.8,62.4-27.8c4.2,0,4.2,4.2,4.2,8.3
	c0,6.9-2.8,18-2.8,26.4c0,6.9,1.4,11.1,6.9,11.1c9.7,0,19.4-18,26.4-18c8.3,0,4.2,51.3,16.6,51.3c11.1,0,16.6-55.5,23.6-55.5
	s12.5,16.6,19.4,16.6c8.3,0,4.2-27.8,13.9-27.8s37.5,33.3,50,33.3c4.2,0,5.5-2.8,5.5-6.9c0-15.3-20.8-48.6-20.8-58.3
	c0-2.8,1.4-4.2,4.2-4.2c11.1,0,43,15.3,58.3,15.3C376,101.3,378.8,98.5,378.8,94.4L378.8,94.4z M124.9,79.1
	c0,5.6-20.8,23.6-29.1,23.6c-2.8,0-4.2-2.8-4.2-5.6c0-5.6,2.8-13.9,5.6-15.3c4.2-2.8,12.5-5.6,18-5.6
	C119.3,76.3,124.9,76.3,124.9,79.1z M328.8,108.2c0,9.7,34.7,56.9,41.6,56.9c5.5,0,9.7-9.7,9.7-18c0-2.8,0-4.2-1.4-5.6
	c-5.5-6.9-40.2-34.7-48.6-34.7C330.2,105.5,328.8,106.8,328.8,108.2L328.8,108.2z"/>
<path class="st0" d="M777,23.6c0,4.2,2.8,6.9,6.9,6.9s6.9-2.8,6.9-6.9s-2.8-6.9-6.9-6.9S777,19.4,777,23.6z M731.2,84.6
	c0-19.4-47.2-25-47.2-29.1s26.4-9.7,40.2-9.7C703.5,19.4,673,22.2,673,16.7c0-2.8,22.2-8.3,43-8.3c16.7,0,33.3,4.2,33.3,16.7
	c0,6.9-5.5,15.3-5.5,26.4c0,5.5,2.8,11.1,11.1,11.1s11.1-9.7,11.1-19.4c0-8.3-1.4-13.9-1.4-18c0-11.1,8.3-19.4,19.4-19.4
	c9.7,0,11.1,4.2,26.4,4.2c-6.9,4.2-9.7,12.5-9.7,16.6c0,11.1,6.9,19.4,6.9,44.4c0,44.4-41.6,59.7-91.6,59.7c-13.9,0-29.1-1.4-43-2.8
	c-2.8,0-2.8-1.4-2.8-2.8c0-4.2,19.4-5.6,19.4-23.6c0-6.9-2.8-13.9-2.8-16.7c0-1.4,1.4-1.4,1.4-1.4c4.2,0,12.5,16.7,27.8,16.7
	C721.5,98.5,731.2,97.1,731.2,84.6L731.2,84.6z M778.4,56.9c0,25-18,44.4-51.3,48.6c4.2,0,6.9,0,9.7,0c38.9,0,52.7-16.7,52.7-31.9
	C790.9,66.6,785.3,58.3,778.4,56.9L778.4,56.9z"/>
<path class="st0" d="M759,416.3c4.2-13.9,9.7-23.6,19.4-38.9c-9.7-4.2-33.3-15.3-33.3-31.9c0-19.4,23.6-34.7,29.1-34.7
	c2.8,0,2.8,1.4,2.8,5.5c0,9.7-4.2,26.4-4.2,34.7s5.5,15.3,9.7,15.3s18-16.6,18-33.3c0-29.1-26.4-38.9-33.3-38.9
	s-20.8,12.5-52.7,12.5c-62.4,1.4-76.3-58.3-76.3-84.6c0-1.4,0-1.4,0-1.4c1.4,0,6.9,6.9,26.4,6.9c9.7,0,18-2.8,33.3-2.8
	c33.3,0,48.6,23.6,69.4,52.7c12.5,8.3,43,20.8,43,55.5c0,31.9-33.3,48.6-41.6,81.9c12.5-1.4,20.8-23.6,33.3-23.6
	c6.9,0,9.7,5.5,9.7,13.9c0,12.5-6.9,30.5-20.8,41.6c0-1.4,0-2.8,0-4.2c0-8.3-2.8-19.4-12.5-19.4c-13.9,0-18,15.3-26.4,27.8
	c-8.3-27.8-19.4-54.1-38.9-69.4s-54.1-6.9-54.1-36.1c0-8.3,5.5-19.4,5.5-27.8c0-2.8,0-5.5-2.8-8.3c26.4,9.7,16.7,27.8,33.3,45.8
	c9.7,11.1,38.9,22.2,55.5,70.8c0-1.4,0-5.5,0-6.9c0-41.6-54.1-81.9-59.7-98.5c31.9,4.2,37.5,11.1,52.7,52.7
	C749.3,384.3,759,405.2,759,416.3L759,416.3z M752,280.3c0-5.5-15.3-6.9-16.7-22.2c0-2.8-1.4-6.9-4.2-6.9c-5.5,0-1.4,15.3-6.9,15.3
	c-12.5,0-16.7-25-22.2-25c-1.4,0-2.8,1.4-2.8,4.2s0,5.6,0,8.3c0,4.2-1.4,5.5-4.2,5.5c-6.9,0-13.9-18-20.8-18c-1.4,0-2.8,1.4-2.8,2.8
	c0,2.8,5.5,9.7,5.5,12.5c0,6.9-18,2.8-18,8.3c0,2.8,2.8,2.8,5.5,2.8c5.5,0,15.3-2.8,19.4-2.8c2.8,0,6.9,0,6.9,4.2s-9.7,8.3-9.7,12.5
	c0,1.4,1.4,2.8,2.8,2.8c6.9,0,20.8-12.5,30.5-12.5c1.4,0,5.5,1.4,5.5,2.8c0,4.2-9.7,9.7-9.7,15.3c0,1.4,1.4,2.8,2.8,2.8
	c5.5,0,11.1-12.5,20.8-12.5c4.2,0,8.3,1.4,11.1,1.4C750.7,283.1,752,281.7,752,280.3L752,280.3z"/>
<path class="st0" d="M543.9,113.8c4.2,0,5.5,11.1,5.5,16.6c0,2.8,1.4,4.2,2.8,4.2c2.8,0,8.3-12.5,12.5-12.5c5.5,0,19.4,15.3,43,15.3
	c33.3,0,65.2-23.6,65.2-65.2c0-40.2-29.1-63.8-68-63.8c-18,0-31.9,9.7-40.2,9.7c-4.2,0-11.1-11.1-13.9-11.1c-1.4,0-2.8,2.8-2.8,6.9
	c0,2.8,0,12.5-2.8,12.5c-5.5-1.4-31.9-19.4-31.9-12.5S530,40.2,530,44.4c0,5.5-16.7,9.7-16.7,12.5c0,5.5,18,6.9,18,15.3
	S512,86,512,91.6c0,4.2,19.4,1.4,19.4,6.9s-13.9,25-13.9,30.5c0,1.4,0,1.4,1.4,1.4C524.5,131.8,541.1,113.8,543.9,113.8L543.9,113.8
	z M552.2,68c0-2.8-11.1-8.3-11.1-12.5c0,0,0-1.4,1.4-1.4c4.2,1.4,8.3,1.4,12.5,1.4s4.2-15.3,6.9-15.3c1.4,0,5.5,15.3,8.3,15.3
	c4.2,0,9.7-4.2,12.5-4.2c0,0,1.4,0,1.4,1.4s-6.9,9.7-6.9,11.1c0,2.8,15.3,5.6,15.3,8.3s-15.3,2.8-15.3,5.6c0,1.4,5.5,9.7,5.5,12.5
	c0,0,0,1.4-1.4,1.4c-2.8,0-11.1-4.2-13.9-4.2s-8.3,11.1-11.1,11.1c-1.4,0-1.4-1.4-1.4-2.8V84.6c0-1.4,0-2.8-1.4-2.8
	c-2.8,0-9.7,0-11.1,0s-1.4,0-1.4-1.4C541.1,77.7,552.2,69.4,552.2,68L552.2,68z M606.4,120.7c-19.4,0-31.9-9.7-31.9-15.3
	c0-2.8,1.4-4.2,4.2-4.2c5.5,0,19.4,9.7,23.6,9.7c1.4,0,1.4,0,1.4-2.8c0-5.6-4.2-13.9-4.2-18c0-1.4,1.4-1.4,2.8-1.4
	c6.9,0,18,2.8,25,2.8c1.4,0,2.8-1.4,2.8-2.8c-1.4-4.2-19.4-16.7-19.4-19.4s22.2-8.3,22.2-13.9s-30.5-1.4-30.5-6.9
	c0-4.2,5.5-11.1,5.5-13.9c0-1.4-1.4-1.4-2.8-1.4c-2.8,0-15.3,5.5-20.8,5.5c-2.8,0-5.5,0-5.5-4.2c0-6.9,11.1-13.9,27.8-13.9
	c27.8,0,44.4,19.4,44.4,51.3C649.4,111,621.6,120.7,606.4,120.7L606.4,120.7z"/>
<path class="st0" d="M417.6,603.6c0,2.8-1.4,5.5-2.8,8.3c-2.8-5.5-11.1-8.3-15.3-8.3c-29.1,0-18,41.6-48.6,41.6
	c-12.5,0-13.9-1.4-18-1.4c-1.4,0-2.8,1.4-2.8,2.8c0,6.9,9.7,25,38.9,25s56.9-18,56.9-38.9c0-4.2-1.4-6.9-2.8-11.1
	c1.4-1.4,4.2-2.8,6.9-2.8c4.2,0,6.9,5.5,11.1,5.5s8.3-2.8,8.3-8.3c0-4.2-1.4-5.5-5.5-8.3c2.8-1.4,4.2-4.2,4.2-6.9
	c0-4.2-2.8-9.7-8.3-9.7c-2.8,0-4.2,1.4-5.5,2.8c0-5.5-2.8-9.7-8.3-9.7c-4.2,0-6.9,2.8-6.9,8.3C414.9,595.3,417.6,598,417.6,603.6
	L417.6,603.6z"/>
<path class="st0" d="M342.7,613.3c-8.3,0-20.8-8.3-20.8-13.9c0-4.2,4.2-6.9,6.9-6.9c6.9,0,19.4,8.3,19.4,15.3
	C348.3,611.9,346.9,613.3,342.7,613.3z M265,550.9c22.2,5.5,33.3,18,36.1,31.9s5.5,25,9.7,30.5c6.9,8.3,20.8,15.3,33.3,15.3
	c9.7,0,18-2.8,18-12.5s-13.9-33.3-33.3-33.3c-1.4,0-4.2,0-6.9,0s-5.5,0-8.3-2.8c-4.2-4.2-5.5-25-13.9-37.5
	c-9.7-13.9-19.4-18-33.3-18c-9.7,0-20.8,5.5-20.8,12.5S247,546.7,265,550.9L265,550.9z"/>
<path class="st0" d="M405.2,517.5c0-12.5-26.4-12.5-26.4-31.9c0-4.2,2.8-12.5,9.7-20.8c2.8,13.9,8.3,22.2,20.8,26.4
	c25,9.7,27.8,23.6,27.8,37.5c0,25-18,56.9-62.4,56.9c-36.1,0-62.4-31.9-62.4-59.7c0-6.9,1.4-15.3,6.9-15.3c4.2,0,5.5,2.8,8.3,6.9
	c12.5,12.5,26.4,15.3,45.8,15.3S405.2,524.5,405.2,517.5L405.2,517.5z M406.5,537c-9.7,4.2-13.9,4.2-13.9,13.9
	c0,4.2-1.4,8.3-1.4,11.1s0,5.5,4.2,5.5c9.7,0,26.4-16.7,26.4-31.9c0-4.2-2.8-5.5-4.2-5.5S413.5,534.2,406.5,537L406.5,537z
	 M317.7,396.8c0-18,43-27.8,43-50c0-4.2-1.4-9.7-4.2-15.3c15.3,8.3,25,22.2,25,33.3c0,19.4-19.4,27.8-19.4,40.2
	c0,13.9,20.8,16.6,20.8,33.3c0,13.9-20.8,30.5-20.8,48.6c0,13.9,9.7,26.4,25,27.8c-5.5,1.4-9.7,1.4-13.9,1.4
	c-27.8,0-56.9-23.6-56.9-51.3c0-13.9,5.5-25,15.3-34.7c8.3,6.9,15.3,11.1,20.8,11.1c4.2,0,6.9-2.8,6.9-5.5
	C358,428.7,317.7,419,317.7,396.8L317.7,396.8z"/>
<path class="st0" d="M155.4,534.2c1.4,9.7,9.7,16.7,19.4,15.3c4.2,0,6.9-1.4,9.7-2.8c2.8,8.3,9.7,15.3,19.4,13.9s16.6-9.7,16.6-19.4
	c0-2.8-1.4-4.2-1.4-6.9c0,0,1.4,0,2.8,0c9.7-1.4,16.6-9.7,16.6-19.4c-1.4-9.7-9.7-18-19.4-16.6c-4.2,0-6.9,1.4-9.7,4.2
	c-2.8-8.3-9.7-15.3-20.8-13.9c-9.7,1.4-16.6,9.7-15.3,20.8c0,1.4,0,4.2,1.4,5.5c0,0-1.4,0-2.8,0C163.7,514.8,154,523.1,155.4,534.2
	L155.4,534.2z M208.1,523.1c0,5.5-4.2,11.1-9.7,11.1s-11.1-4.2-11.1-9.7s4.2-11.1,9.7-11.1S206.7,517.5,208.1,523.1z"/>
</svg>
